<?xml version="1.0" encoding="UTF-8"?>
<svg id="Layer_2" data-name="Layer 2" xmlns="http://www.w3.org/2000/svg" viewBox="0 0 492.61 483.26">
  <defs>
    <style>
      .stroke-2 {
        stroke-width: 2;
      }
    </style>
  </defs>
  <g id="Layer_1-2" data-name="Layer 1">
    <path class="stroke-2" d="m161.87,1c7.55,0,19.4,12.42,32.51,34.08,15.37,25.39,32.27,62.75,48.87,108.06l.93,2.55.94-2.55c16.68-45.01,33.61-82.09,48.96-107.26,13.11-21.48,24.94-33.8,32.47-33.8,2.17,0,3.92,1.02,5.33,3.11,4.87,7.18,4.86,25.2-.04,50.72-5.57,29.07-17.19,66.19-33.58,107.34l-1.1,2.77,2.55-1.55c64.04-38.82,117.63-62,143.36-62,5.17,0,11.59,1.02,12.83,5.9.89,3.5.08,14.14-26.57,37.31-21.87,19.02-54.47,40.5-94.28,62.13l-6.86,3.73,7.57-1.88c59.71-14.79,109.26-23.27,135.96-23.27,16.44,0,18.08,3.23,18.19,4.22.37,3.32-8.71,10.45-35.33,20.5-26.96,10.18-65.92,21.21-112.66,31.89l-6.88,1.57,7.05.4c58.31,3.31,93.53,9.83,112.82,14.71,23.14,5.86,36.85,12.84,36.69,18.69-.18,6.34-18.38,13.73-69.08,13.73-26.33,0-57.6-2.02-92.92-6l-4.03-.45,3.36,2.28c36.94,25.04,67.17,48.26,87.41,67.15,25.39,23.69,25.5,31.59,24.93,33.45-.47,1.53-2.18,2.31-5.09,2.31-14.29,0-56.65-18.97-132.7-72.22l-2.96-2.07,1.47,3.3c17.82,39.91,30.46,76.48,36.55,105.74,5.34,25.64,5.38,44.23.12,52.34-1.76,2.71-4.08,4.08-6.91,4.08-4.93,0-16.04-4.24-35.04-32.63-16.31-24.37-34.15-60.53-51.6-104.58l-.93-2.36-.93,2.36c-17.32,44.15-35.01,80.38-51.15,104.77-18.82,28.44-29.83,32.68-34.71,32.68-2.79,0-5.08-1.35-6.83-4.02-5.29-8.08-5.33-26.74-.11-52.54,5.94-29.4,18.37-66.18,35.93-106.34l1.29-2.96-2.74,1.71c-33.43,20.87-62.89,37.06-87.55,48.13-21.64,9.71-38.31,14.84-48.2,14.84-4.98,0-7.86-1.3-8.57-3.85-.54-1.96-.12-5.78,4.97-12.83,4.39-6.09,11.33-13.33,20.63-21.51,20.86-18.36,52.01-40.06,90.08-62.76l6.24-3.72-7.01,1.9c-59.63,16.12-108.82,25.37-134.95,25.37-15.07,0-16.63-3.16-16.75-4.13-.14-1.11.67-3.66,7.64-8.21,5.85-3.82,14.64-8.13,26.12-12.8,25.86-10.53,63.51-22.14,108.87-33.58l3.38-.85-3.32-1.07c-46.62-15.03-85.27-30.4-111.76-44.46C2.13,181.27.7,172.87,1.04,170.71c.51-3.27,5.94-5.07,15.27-5.07,26.2,0,77.75,13.88,137.88,37.14l4.15,1.61-3.07-3.23C85.61,127.81,60.36,79.3,66.39,65.26c1.13-2.62,3.44-3.95,6.88-3.95,17.2,0,59.47,31.53,115.13,101.95l4.24,5.36-2.52-6.35c-16.38-41.22-27.97-78.39-33.53-107.49-4.87-25.52-4.88-43.53-.01-50.7,1.41-2.08,3.15-3.09,5.31-3.09m0-1c-17.47,0-13.95,58.81,27.31,162.64-55.75-70.55-98.39-102.33-115.91-102.33-22.42,0-3.71,52.06,81.3,141.53-68.25-26.39-115.22-37.2-138.24-37.2-42.06,0-4.23,36.1,129.9,79.34-132.11,33.3-170.1,60.69-125.63,60.69,23.19,0,68.82-7.45,135.21-25.41-102.24,60.97-134.91,102.81-106.61,102.81,18.95,0,65.24-18.77,136.28-63.12-45.07,103.08-48.09,164.3-28.07,164.3,16.65,0,49.22-42.32,86.79-138.09,37.87,95.59,70.8,137.84,87.57,137.84,20.13,0,16.98-60.91-28.85-163.57,72.04,50.44,117.49,72.4,133.27,72.4,21.38,0-11.63-40.3-106.7-104.74,37.5,4.23,68.5,6.01,93.04,6.01,115.64,0,87.72-39.58-80.36-49.13,136.92-31.29,177.27-58.59,129.56-58.58-23.81,0-69.57,6.8-136.19,23.3,111.17-60.4,143.59-107.22,107.54-107.22-22.38,0-71.17,18.06-143.88,62.14C340.5,59.99,344.1,1.09,326.56,1.09c-15.19,0-46.23,44.17-82.37,141.71C208.2,44.57,177.08,0,161.87,0h0Z"/>
  </g>
</svg>